<svg width="2034" height="583" viewBox="0 0 2034 583" fill="none" xmlns="http://www.w3.org/2000/svg">
<rect width="2034" height="583" fill="white"/>
<circle cx="1720" cy="309" r="228" fill="#FF595E"/>
<circle cx="1430" cy="82" r="50" fill="#FF595E"/>
<circle cx="1636" cy="127" r="64" fill="#FF595E"/>
<path d="M154.096 436.512C148.965 430.197 146.4 424.573 146.4 419.64C146.4 414.509 150.643 407.8 159.128 399.512C164.061 394.776 169.291 392.408 174.816 392.408C180.341 392.408 188.037 397.341 197.904 407.208C200.667 410.563 204.613 413.819 209.744 416.976C214.875 419.936 219.611 421.416 223.952 421.416C242.304 421.416 251.48 413.917 251.48 398.92C251.48 394.381 248.915 390.632 243.784 387.672C238.851 384.515 232.635 382.245 225.136 380.864C217.637 379.483 209.547 377.312 200.864 374.352C192.181 371.195 184.091 367.544 176.592 363.4C169.093 359.256 162.779 352.744 157.648 343.864C152.715 334.787 150.248 323.933 150.248 311.304C150.248 293.939 156.661 278.843 169.488 266.016C182.512 252.992 200.173 246.48 222.472 246.48C234.312 246.48 245.067 248.059 254.736 251.216C264.603 254.176 271.411 257.235 275.16 260.392L282.56 266.016C288.677 271.739 291.736 276.573 291.736 280.52C291.736 284.467 289.368 289.893 284.632 296.8C277.923 306.667 271.016 311.6 263.912 311.6C259.768 311.6 254.637 309.627 248.52 305.68C247.928 305.285 246.744 304.299 244.968 302.72C243.389 301.141 241.909 299.859 240.528 298.872C236.384 296.307 231.056 295.024 224.544 295.024C218.229 295.024 212.901 296.603 208.56 299.76C204.416 302.72 202.344 306.963 202.344 312.488C202.344 317.816 204.811 322.157 209.744 325.512C214.875 328.867 221.189 331.136 228.688 332.32C236.187 333.504 244.376 335.379 253.256 337.944C262.136 340.312 270.325 343.272 277.824 346.824C285.323 350.376 291.539 356.592 296.472 365.472C301.603 374.155 304.168 384.909 304.168 397.736C304.168 410.563 301.603 421.909 296.472 431.776C291.341 441.445 284.632 448.944 276.344 454.272C260.36 464.731 243.291 469.96 225.136 469.96C215.861 469.96 207.08 468.875 198.792 466.704C190.504 464.336 183.795 461.475 178.664 458.12C168.205 451.805 160.904 445.688 156.76 439.768L154.096 436.512ZM322.876 249.736H487.452C493.767 249.736 498.404 250.525 501.364 252.104C504.324 253.485 506.297 255.755 507.284 258.912C508.271 262.069 508.764 266.213 508.764 271.344C508.764 276.475 508.271 280.619 507.284 283.776C506.297 286.736 504.62 288.808 502.252 289.992C498.7 291.768 493.668 292.656 487.156 292.656H430.62V441.544C430.62 446.083 430.423 449.437 430.028 451.608C429.831 453.779 428.943 456.344 427.364 459.304C425.983 462.067 423.417 464.04 419.668 465.224C415.919 466.408 410.985 467 404.868 467C398.751 467 393.817 466.408 390.068 465.224C386.516 464.04 383.951 462.067 382.372 459.304C380.991 456.344 380.103 453.779 379.708 451.608C379.511 449.24 379.412 445.787 379.412 441.248V292.656H322.58C316.265 292.656 311.628 291.965 308.668 290.584C305.708 289.005 303.735 286.637 302.748 283.48C301.761 280.323 301.268 276.179 301.268 271.048C301.268 265.917 301.761 261.872 302.748 258.912C303.735 255.755 305.412 253.584 307.78 252.4C311.332 250.624 316.364 249.736 322.876 249.736ZM691.232 430.296C694.192 437.4 695.672 442.531 695.672 445.688C695.672 453.187 689.555 459.501 677.32 464.632C671.005 467.395 665.875 468.776 661.928 468.776C658.179 468.776 655.021 467.888 652.456 466.112C650.088 464.139 648.312 462.165 647.128 460.192C645.155 456.443 637.459 438.584 624.04 406.616L614.864 407.208H577.568V440.656C577.568 445.195 577.371 448.648 576.976 451.016C576.779 453.187 575.891 455.752 574.312 458.712C571.549 464.04 563.853 466.704 551.224 466.704C537.411 466.704 529.32 463.053 526.952 455.752C525.768 452.397 525.176 447.267 525.176 440.36V276.08C525.176 271.541 525.275 268.187 525.472 266.016C525.867 263.648 526.853 260.984 528.432 258.024C531.195 252.696 538.891 250.032 551.52 250.032H615.456C632.821 250.032 649.693 256.347 666.072 268.976C673.965 275.093 680.477 283.381 685.608 293.84C690.739 304.299 693.304 315.941 693.304 328.768C693.304 351.067 685.904 369.419 671.104 383.824C675.445 394.283 682.155 409.773 691.232 430.296ZM577.568 354.816H615.456C621.179 354.816 626.901 352.645 632.624 348.304C638.347 343.963 641.208 337.451 641.208 328.768C641.208 320.085 638.347 313.573 632.624 309.232C626.901 304.693 620.981 302.424 614.864 302.424H577.568V354.816ZM837.118 265.424L917.038 430.592C920.393 437.301 922.07 442.333 922.07 445.688C922.07 452.792 916.348 459.205 904.902 464.928C898.193 468.283 892.865 469.96 888.918 469.96C885.169 469.96 882.012 469.072 879.446 467.296C877.078 465.52 875.302 463.645 874.118 461.672C873.132 459.699 871.652 456.739 869.678 452.792L854.286 420.824H772.294L756.902 452.792C754.929 456.739 753.35 459.6 752.166 461.376C751.18 463.152 749.404 465.027 746.838 467C744.47 468.776 741.313 469.664 737.366 469.664C733.617 469.664 728.388 467.987 721.678 464.632C710.233 459.107 704.51 452.792 704.51 445.688C704.51 442.333 706.188 437.301 709.542 430.592L789.462 265.128C791.633 260.589 794.889 256.939 799.23 254.176C803.769 251.413 808.505 250.032 813.438 250.032C824.094 250.032 831.988 255.163 837.118 265.424ZM813.142 336.464L793.606 377.016H832.974L813.142 336.464ZM897.243 249.736H1061.82C1068.13 249.736 1072.77 250.525 1075.73 252.104C1078.69 253.485 1080.66 255.755 1081.65 258.912C1082.64 262.069 1083.13 266.213 1083.13 271.344C1083.13 276.475 1082.64 280.619 1081.65 283.776C1080.66 286.736 1078.99 288.808 1076.62 289.992C1073.07 291.768 1068.04 292.656 1061.52 292.656H1004.99V441.544C1004.99 446.083 1004.79 449.437 1004.4 451.608C1004.2 453.779 1003.31 456.344 1001.73 459.304C1000.35 462.067 997.785 464.04 994.035 465.224C990.286 466.408 985.353 467 979.235 467C973.118 467 968.185 466.408 964.435 465.224C960.883 464.04 958.318 462.067 956.739 459.304C955.358 456.344 954.47 453.779 954.075 451.608C953.878 449.24 953.779 445.787 953.779 441.248V292.656H896.947C890.633 292.656 885.995 291.965 883.035 290.584C880.075 289.005 878.102 286.637 877.115 283.48C876.129 280.323 875.635 276.179 875.635 271.048C875.635 265.917 876.129 261.872 877.115 258.912C878.102 255.755 879.779 253.584 882.147 252.4C885.699 250.624 890.731 249.736 897.243 249.736ZM1151.94 414.608H1243.1C1247.64 414.608 1251 414.805 1253.17 415.2C1255.54 415.397 1258.2 416.285 1261.16 417.864C1266.49 420.627 1269.15 428.323 1269.15 440.952C1269.15 454.765 1265.5 462.856 1258.2 465.224C1254.84 466.408 1249.71 467 1242.81 467H1125.59C1111.78 467 1103.69 463.251 1101.32 455.752C1100.14 452.595 1099.54 447.563 1099.54 440.656V276.08C1099.54 266.016 1101.42 259.208 1105.17 255.656C1108.92 251.907 1116.02 250.032 1126.48 250.032H1243.1C1247.64 250.032 1251 250.229 1253.17 250.624C1255.54 250.821 1258.2 251.709 1261.16 253.288C1266.49 256.051 1269.15 263.747 1269.15 276.376C1269.15 290.189 1265.5 298.28 1258.2 300.648C1254.84 301.832 1249.71 302.424 1242.81 302.424H1151.94V332.32H1210.54C1215.08 332.32 1218.44 332.517 1220.61 332.912C1222.98 333.109 1225.64 333.997 1228.6 335.576C1233.93 338.339 1236.59 346.035 1236.59 358.664C1236.59 372.477 1232.84 380.568 1225.34 382.936C1221.99 384.12 1216.86 384.712 1209.95 384.712H1151.94V414.608ZM1401.37 336.168H1453.47C1464.12 336.563 1470.64 339.325 1473 344.456C1474.98 348.205 1475.96 353.731 1475.96 361.032V426.152C1475.96 432.467 1473.2 438.485 1467.68 444.208C1451.1 461.376 1426.24 469.96 1393.08 469.96C1363.68 469.96 1338.13 458.909 1316.42 436.808C1294.71 414.509 1283.86 387.672 1283.86 356.296C1283.86 324.92 1294.91 298.773 1317.01 277.856C1339.11 256.741 1365.16 246.184 1395.16 246.184C1418.44 246.184 1440.44 253.88 1461.16 269.272C1466.49 273.219 1469.16 277.659 1469.16 282.592C1469.16 287.328 1466.89 292.853 1462.35 299.168C1454.65 309.627 1447.65 314.856 1441.33 314.856C1437.58 314.856 1431.56 312.192 1423.28 306.864C1414.99 301.339 1405.12 298.576 1393.68 298.576C1378.68 298.576 1365.36 303.904 1353.72 314.56C1342.07 325.019 1336.25 338.832 1336.25 356C1336.25 372.971 1342.17 387.475 1354.01 399.512C1365.85 411.352 1379.27 417.272 1394.27 417.272C1405.12 417.272 1414.89 415.496 1423.57 411.944V379.68H1400.19C1394.07 379.68 1389.73 378.891 1387.16 377.312C1384.6 375.733 1382.92 373.464 1382.13 370.504C1381.34 367.347 1380.95 363.203 1380.95 358.072C1380.95 352.744 1381.34 348.501 1382.13 345.344C1383.12 342.187 1384.8 340.016 1387.16 338.832C1390.72 337.056 1395.45 336.168 1401.37 336.168Z" fill="black"/>
<path d="M1574.47 276.08C1574.47 271.541 1574.57 268.187 1574.77 266.016C1575.16 263.648 1576.15 260.984 1577.73 258.024C1580.49 252.696 1588.19 250.032 1600.82 250.032C1614.63 250.032 1622.82 253.683 1625.38 260.984C1626.37 264.339 1626.86 269.469 1626.86 276.376V440.952C1626.86 445.688 1626.67 449.141 1626.27 451.312C1626.08 453.483 1625.19 456.048 1623.61 459.008C1620.85 464.336 1613.15 467 1600.52 467C1586.71 467 1578.62 463.251 1576.25 455.752C1575.06 452.595 1574.47 447.563 1574.47 440.656V276.08ZM1790.5 259.208C1792.48 255.656 1795.34 253.288 1799.09 252.104C1802.84 250.92 1807.47 250.328 1813 250.328C1818.72 250.328 1823.26 250.821 1826.62 251.808C1830.17 252.795 1832.73 253.979 1834.31 255.36C1836.09 256.741 1837.37 258.813 1838.16 261.576C1839.34 264.733 1839.94 269.765 1839.94 276.672V440.952C1839.94 445.688 1839.74 449.141 1839.34 451.312C1839.15 453.483 1838.26 456.048 1836.68 459.008C1833.92 464.336 1826.22 467 1813.59 467C1805.9 467 1800.57 466.408 1797.61 465.224C1794.65 464.04 1792.18 462.165 1790.21 459.6C1745.81 400.4 1716.6 361.723 1702.59 343.568V440.952C1702.59 445.688 1702.39 449.141 1702 451.312C1701.8 453.483 1700.91 456.048 1699.34 459.008C1696.57 464.336 1688.88 467 1676.25 467C1664.01 467 1656.51 464.336 1653.75 459.008C1652.17 456.048 1651.19 453.384 1650.79 451.016C1650.59 448.648 1650.5 445.195 1650.5 440.656V275.488C1650.5 267.989 1651.38 262.563 1653.16 259.208C1655.13 255.656 1657.99 253.288 1661.74 252.104C1665.49 250.92 1670.33 250.328 1676.25 250.328C1682.17 250.328 1686.81 250.92 1690.16 252.104C1693.71 253.091 1696.18 254.275 1697.56 255.656C1698.35 256.248 1700.62 258.813 1704.37 263.352C1746.01 319.987 1773.83 357.381 1787.84 375.536V275.488C1787.84 267.989 1788.73 262.563 1790.5 259.208Z" fill="white"/>
</svg>
